<svg width="44" height="21" viewBox="0 0 44 21" fill="none" xmlns="http://www.w3.org/2000/svg">
<path fill-rule="evenodd" clip-rule="evenodd" d="M27.9663 0.000334338C26.9165 0.0148249 25.8601 0.922898 25.1999 2.04028C24.8967 2.56033 24.6799 3.12224 24.5854 3.66161C23.5828 3.04495 22.4988 2.66498 21.7913 2.66498C19.8563 2.66498 19.5254 4.11886 19.5254 4.91745C19.5254 7.8703 25.1298 11.1468 26.8415 11.1468C28.2206 11.1274 30.8028 6.94935 30.749 3.47162C30.7294 2.04511 29.9323 -0.0302568 27.9663 0.000334338ZM26.4421 6.8946C26.4421 6.99926 26.4046 7.07976 26.3084 7.07976C25.5227 7.07976 25.4396 5.55343 25.4396 5.55343C26.0574 5.88993 26.4421 6.36007 26.4421 6.8946ZM26.2498 10.0648C25.0271 10.0648 21.5321 6.99121 21.5321 5.25073C21.5321 4.41994 22.1043 4.18327 22.5819 4.18327C23.1231 4.18327 24.4028 4.91584 24.4028 4.91584C24.4028 4.91584 24.5935 8.2068 25.8879 8.2068C26.3476 8.2068 27.2083 7.45973 27.2083 6.85918C27.2083 5.869 26.4307 5.09134 25.5357 4.34105C25.5781 3.96108 25.8308 3.28324 26.2481 2.7648C26.6231 2.29467 27.148 1.92113 27.8033 1.91147C28.4472 1.9002 28.8743 2.58126 28.889 3.66966C28.9281 6.28761 27.3599 10.0455 26.2514 10.0616Z" fill="#FFD406"/>
<path d="M31.2754 15.3993C30.8043 15.3993 29.9908 16.4619 29.1513 16.4619C28.7861 16.4619 28.4895 16.3572 28.4895 15.5828L30.9379 14.7246C31.6617 14.4316 31.7824 14.2094 31.7824 13.7457C31.7824 12.6461 31.0439 11.0537 29.3975 11.0537C28.884 11.0537 26.6914 11.3693 26.6914 15.2576C26.6914 17.0013 27.6402 18.0414 28.8856 18.0414C30.338 18.0414 31.7856 16.9481 31.7856 16.0707C31.7856 15.813 31.5297 15.3993 31.277 15.3993H31.2754ZM29.329 12.5511C29.9859 12.5511 30.1457 13.3062 30.1587 13.5606L28.4487 14.1402C28.452 13.8053 28.5661 12.6573 29.329 12.5511Z" fill="#00AFAA"/>
<path d="M38.9133 10.9668C38.0444 10.9668 36.7941 11.379 36.7403 12.8731C36.6637 15.0998 39.2735 15.7648 39.2735 16.6487C39.2735 17.0786 38.9198 17.151 38.584 17.151C37.5423 17.151 37.0647 15.9998 36.5789 15.9998C36.2529 15.9998 35.8828 16.5022 35.8828 17.0045C35.8828 17.7339 37.2016 18.7595 38.6997 18.7595C39.9451 18.7595 41.0814 18.0349 41.0814 16.7646C41.0814 14.8277 38.447 14.0034 38.447 13.0116C38.447 12.7813 38.5937 12.5108 38.9638 12.5108C39.849 12.5108 39.6061 13.5799 40.2891 13.5799C40.6559 13.5799 41.2884 13.3948 41.2884 13.01C41.2884 11.7509 39.9419 10.9668 38.9149 10.9668H38.9133Z" fill="#00AFAA"/>
<path d="M18.0876 11.4049C17.5105 11.4049 16.9318 11.5708 16.3466 12.3259C16.1917 11.9684 15.6032 11.4049 14.5795 11.4049C14.1296 11.4049 13.4009 11.6078 12.9216 12.2261V11.8541C12.9216 11.3389 12.8026 11.0716 12.4032 11.0732C11.9501 11.0797 11.2051 11.4259 11.2051 12.152V16.7873C11.2051 17.6487 11.655 18.4216 12.6575 18.4473C13.0308 18.4554 13.1564 18.333 13.1564 18.0641C13.1564 17.9514 13.1482 14.3545 13.1482 14.1984C13.1482 13.6091 13.5199 13.2001 14.0627 13.2001C14.5664 13.2001 14.7735 13.4996 14.7735 14.1098V16.5281C14.7735 17.0659 14.9267 17.9176 16.0385 17.9176C16.3335 17.9176 16.6677 17.7791 16.6677 17.4072V14.1307C16.6677 13.4255 17.1339 13.1985 17.6295 13.1985C18.1251 13.1985 18.2718 13.6204 18.2718 14.0728V16.6006C18.2734 17.5457 18.5244 18.1994 19.5791 18.1994C20.0372 18.1994 20.2247 18.1414 20.2247 17.8194V13.8297C20.2247 13.3209 20.1709 11.4033 18.0892 11.4033L18.0876 11.4049Z" fill="#00AFAA"/>
<path d="M8.24721 11.0563C7.19087 11.0563 7.07187 11.5892 7.05557 11.8565C7.03927 12.127 7.22999 12.6036 7.57396 12.5794C7.62123 12.5778 7.76305 12.573 7.78424 12.573C8.28633 12.573 8.82917 12.6841 8.82428 13.1977C8.82428 13.2846 8.81613 13.481 8.81613 13.481C8.81613 13.481 4.82227 13.3957 4.82227 16.099C4.82227 17.1214 5.58191 18.2275 6.8192 18.2275C7.64894 18.2275 8.46402 17.6479 8.78842 16.867C8.73951 16.9797 8.72321 17.2099 8.72321 17.3033C8.72321 18.1277 9.28398 18.279 10.0958 18.279C10.4137 18.279 10.4772 18.1003 10.4772 17.7429V13.4666C10.4153 11.4331 9.17639 11.0547 8.24558 11.0547L8.24721 11.0563ZM7.25608 16.7607C6.8518 16.7607 6.72139 16.4242 6.72139 16.07C6.72139 14.972 8.15103 14.724 8.75907 14.724C8.77537 14.724 8.79005 14.724 8.80472 14.724C8.80472 16.3486 7.77935 16.7607 7.25608 16.7607Z" fill="#00AFAA"/>
<path d="M23.3375 10.9264C21.8654 10.9329 20.9004 11.6654 20.9004 14.0451V19.5418C20.9004 20.2068 21.0667 20.6125 21.885 20.6125C22.3431 20.6125 22.5322 20.5594 22.5322 20.2728V17.8481C23.0946 17.7595 26.2163 17.328 26.2163 13.5766C26.2163 12.6653 25.6669 10.9248 23.3375 10.9248V10.9264ZM22.5403 16.275V14.0193C22.5403 13.1596 22.7213 12.6717 23.4581 12.6105C24.0498 12.5638 24.5943 12.9808 24.5943 13.6796C24.5943 15.2059 23.9194 16.1833 22.5403 16.275Z" fill="#00AFAA"/>
<path d="M6.96399 9.27238C6.96399 7.94247 6.23206 5.94922 3.77705 5.94922C1.83392 5.94922 0 7.13744 0 10.5814C0 13.1317 0.43851 16.6561 0.612936 17.6721C0.77106 18.5898 0.945486 19.0921 1.98715 19.0921C2.57074 19.0921 2.81364 19.0261 2.81364 18.6622L2.27406 14.4133C2.98806 14.2974 6.96399 13.7725 6.96399 9.27399V9.27238ZM1.99204 10.7424C1.99204 8.77326 2.58868 7.83299 3.63523 7.83299C4.29218 7.83299 5.06324 8.2677 5.06324 9.62498C5.06324 11.1578 4.10145 12.2413 2.12245 12.6535C2.03279 11.9757 1.99041 11.3236 1.99041 10.7424H1.99204Z" fill="#00AFAA"/>
<path d="M36.0554 12.7506C36.282 12.6749 36.37 12.4575 36.37 12.2692C36.37 11.828 36.2542 11.2371 35.7522 11.2371C35.4653 11.2371 34.9518 11.3611 34.1986 12.1404C34.1986 11.7974 34.1937 11.5865 34.1937 11.5865C34.1937 11.279 33.9883 11.1228 33.6395 11.126C33.157 11.1341 32.4902 11.4448 32.4902 12.15V16.9689C32.4902 17.9333 32.8309 18.2908 33.8677 18.2908C33.8677 18.2908 34.3861 18.2441 34.3861 17.9591C34.3861 17.6741 34.3779 14.1111 34.3779 14.0982C34.3779 13.4509 35.3723 12.9921 36.0554 12.7522V12.7506Z" fill="#00AFAA"/>
<path d="M42.6683 17.9628C42.6683 17.8082 42.5509 17.731 42.3814 17.731H42.1352C42.088 17.731 42.0488 17.7696 42.0488 17.8195V18.3621C42.0488 18.4088 42.088 18.4474 42.1352 18.4474C42.1825 18.4474 42.2216 18.4088 42.2216 18.3621V18.2108H42.3357L42.5004 18.412C42.5199 18.4313 42.5395 18.4474 42.5705 18.4474C42.621 18.4474 42.6569 18.412 42.6569 18.3669C42.6569 18.3444 42.6536 18.3251 42.634 18.3057L42.5281 18.1786C42.6145 18.1431 42.6699 18.0707 42.6699 17.966L42.6683 17.9628ZM42.37 18.0707H42.2216V17.8775H42.37C42.445 17.8775 42.4922 17.9129 42.4922 17.9741C42.4922 18.032 42.4498 18.0707 42.37 18.0707Z" fill="#00AFAA"/>
<path d="M42.3298 17.4194C41.95 17.4194 41.6484 17.7286 41.6484 18.0973V18.1005C41.6484 18.4676 41.9468 18.7735 42.3298 18.7735C42.7129 18.7735 43.0112 18.4644 43.0112 18.0957V18.0924C43.0112 17.7253 42.7129 17.4194 42.3298 17.4194ZM42.8776 18.0973C42.8776 18.3951 42.6396 18.6447 42.3298 18.6447C42.0201 18.6447 41.7821 18.3983 41.7821 18.1005V18.0973C41.7821 17.7994 42.0201 17.5498 42.3298 17.5498C42.6396 17.5498 42.8776 17.7962 42.8776 18.094V18.0973Z" fill="#00AFAA"/>
</svg>
